ffmpeg started on 2016-11-28 at 02:31:30
Report written to "Output/NVENCh264/results/ffmpeg/old_town_cross_2160p50llhp7000k.log"
Command line:
Tools/ffmpeg/ffmpeg -benchmark -y -i Input/y4m/old_town_cross_2160p50.y4m -c:v h264_nvenc -preset llhp -b:v 7000k -an Output/NVENCh264/encoded/old_town_cross_2160p50llhp7000k.mkv
ffmpeg version N-82227-gdb23fde Copyright (c) 2000-2016 the FFmpeg developers
  built with gcc 5.4.0 (Ubuntu 5.4.0-6ubuntu1~16.04.2) 20160609
  configuration: --prefix=/home/jaroslav/ffmpeg_build --pkg-config-flags=--static --extra-cflags=-I/home/jaroslav/ffmpeg_build/include --extra-ldflags=-L/home/jaroslav/ffmpeg_build/lib --bindir=/home/jaroslav/bin --enable-gpl --enable-libass --enable-libfdk-aac --enable-libfreetype --enable-libmp3lame --enable-libopus --enable-libtheora --enable-libvorbis --enable-libvpx --enable-libx264 --enable-libx265 --enable-nvenc --enable-libmfx --enable-libxvid --enable-libgsm --enable-libopencore-amrnb --enable-version3 --enable-nonfree
  libavutil      55. 35.100 / 55. 35.100
  libavcodec     57. 66.101 / 57. 66.101
  libavformat    57. 57.100 / 57. 57.100
  libavdevice    57.  2.100 / 57.  2.100
  libavfilter     6. 66.100 /  6. 66.100
  libswscale      4.  3.100 /  4.  3.100
  libswresample   2.  4.100 /  2.  4.100
  libpostproc    54.  2.100 / 54.  2.100
Input #0, yuv4mpegpipe, from 'Input/y4m/old_town_cross_2160p50.y4m':
  Duration: 00:00:10.00, start: 0.000000, bitrate: 4976642 kb/s
    Stream #0:0: Video: rawvideo (I420 / 0x30323449), yuv420p(progressive), 3840x2160, SAR 1:1 DAR 16:9, 50 fps, 50 tbr, 50 tbn, 50 tbc
[h264_nvenc @ 0x461b120] The variable bitrate rate-control requires the 'qmin' and/or 'qmax' option set.
Output #0, matroska, to 'Output/NVENCh264/encoded/old_town_cross_2160p50llhp7000k.mkv':
  Metadata:
    encoder         : Lavf57.57.100
    Stream #0:0: Video: h264 (h264_nvenc) (Main) (H264 / 0x34363248), yuv420p, 3840x2160 [SAR 1:1 DAR 16:9], q=-1--1, 7000 kb/s, 50 fps, 1k tbn, 50 tbc
    Metadata:
      encoder         : Lavc57.66.101 h264_nvenc
    Side data:
      cpb: bitrate max/min/avg: 0/0/7000000 buffer size: 14000000 vbv_delay: -1
Stream mapping:
  Stream #0:0 -> #0:0 (rawvideo (native) -> h264 (h264_nvenc))
Press [q] to stop, [?] for help
frame=   19 fps=0.0 q=0.0 size=       0kB time=00:00:00.00 bitrate=N/A speed=   0x    frame=   28 fps= 27 q=0.0 size=       0kB time=00:00:00.00 bitrate=N/A speed=   0x    frame=   46 fps= 29 q=35.0 size=       1kB time=00:00:00.30 bitrate=  19.9kbits/s speed=0.192x    frame=   64 fps= 31 q=36.0 size=       1kB time=00:00:00.66 bitrate=   9.0kbits/s speed=0.317x    frame=   82 fps= 32 q=34.0 size=       1kB time=00:00:01.02 bitrate=   5.9kbits/s speed=0.393x    frame=  100 fps= 32 q=34.0 size=       1kB time=00:00:01.38 bitrate=   4.3kbits/s speed=0.443x    frame=  118 fps= 32 q=33.0 size=       1kB time=00:00:01.74 bitrate=   3.4kbits/s speed=0.479x    frame=  136 fps= 33 q=33.0 size=       1kB time=00:00:02.10 bitrate=   2.8kbits/s speed=0.507x    frame=  154 fps= 33 q=33.0 size=       1kB time=00:00:02.46 bitrate=   2.4kbits/s speed=0.528x    frame=  172 fps= 33 q=35.0 size=       1kB time=00:00:02.82 bitrate=   2.1kbits/s speed=0.545x    frame=  190 fps= 33 q=35.0 size=       1kB time=00:00:03.18 bitrate=   1.9kbits/s speed=0.56x    frame=  208 fps= 34 q=34.0 size=       1kB time=00:00:03.54 bitrate=   1.7kbits/s speed=0.571x    frame=  226 fps= 34 q=33.0 size=       1kB time=00:00:03.90 bitrate=   1.5kbits/s speed=0.581x    frame=  244 fps= 34 q=33.0 size=       1kB time=00:00:04.26 bitrate=   1.4kbits/s speed=0.59x    frame=  262 fps= 34 q=33.0 size=       1kB time=00:00:04.62 bitrate=   1.3kbits/s speed=0.597x    frame=  280 fps= 34 q=35.0 size=       1kB time=00:00:04.98 bitrate=   1.2kbits/s speed=0.604x    frame=  298 fps= 34 q=35.0 size=    4124kB time=00:00:05.34 bitrate=6324.9kbits/s speed=0.608x    frame=  316 fps= 34 q=34.0 size=    4124kB time=00:00:05.70 bitrate=5925.5kbits/s speed=0.614x    frame=  334 fps= 34 q=34.0 size=    4124kB time=00:00:06.06 bitrate=5573.5kbits/s speed=0.618x    frame=  352 fps= 34 q=33.0 size=    4124kB time=00:00:06.42 bitrate=5261.0kbits/s speed=0.623x    frame=  370 fps= 34 q=33.0 size=    4124kB time=00:00:06.78 bitrate=4981.7kbits/s speed=0.626x    frame=  376 fps= 33 q=33.0 size=    4124kB time=00:00:06.90 bitrate=4895.1kbits/s speed=0.609x    frame=  394 fps= 33 q=34.0 size=    4124kB time=00:00:07.26 bitrate=4652.4kbits/s speed=0.613x    frame=  412 fps= 33 q=34.0 size=    4124kB time=00:00:07.62 bitrate=4432.6kbits/s speed=0.617x    frame=  430 fps= 33 q=34.0 size=    4124kB time=00:00:07.98 bitrate=4232.7kbits/s speed=0.62x    frame=  448 fps= 33 q=33.0 size=    4124kB time=00:00:08.34 bitrate=4050.0kbits/s speed=0.623x    frame=  466 fps= 34 q=33.0 size=    4124kB time=00:00:08.70 bitrate=3882.4kbits/s speed=0.626x    frame=  484 fps= 34 q=35.0 size=    4124kB time=00:00:09.06 bitrate=3728.2kbits/s speed=0.629x    frame=  500 fps= 34 q=33.0 Lsize=    8417kB time=00:00:09.98 bitrate=6908.6kbits/s speed=0.669x    
video:8413kB audio:0kB subtitle:0kB other streams:0kB global headers:0kB muxing overhead: 0.052712%
bench: utime=1.052s
bench: maxrss=1411400kB
